<?xml version="1.0" encoding="UTF-8"?>
<svg width="25px" height="25px" viewBox="0 0 25 25" version="1.1" xmlns="http://www.w3.org/2000/svg" xmlns:xlink="http://www.w3.org/1999/xlink">
    <!-- Generator: Sketch 45.2 (43514) - http://www.bohemiancoding.com/sketch -->
    <title>icon-univer copy</title>
    <desc>Created with Sketch.</desc>
    <defs></defs>
    <g id="Parts" stroke="none" stroke-width="1" fill="none" fill-rule="evenodd">
        <g id="icon-univer-copy" fill="#0067B1">
            <path d="M9.60712696,7.81629206 C9.54743079,7.76126304 9.48849438,7.70688525 9.4302092,7.65272453 C9.46407321,7.63155952 9.49706892,7.6100689 9.53201832,7.58944658 C9.88791608,7.37942457 10.3200079,7.14205086 10.78401,6.87504613 C11.1743145,7.16842571 11.5729764,7.44628429 11.9751116,7.71003287 C11.5036203,7.9953806 11.0113982,8.2904968 10.5202614,8.59494732 C10.2041973,8.34237821 9.89714186,8.08318825 9.60712696,7.81629206 M15.3536982,17.3052711 C13.3972916,16.0608771 10.3318386,14.9291461 8.55267537,13.2158657 C8.52619197,13.1903592 8.50003419,13.1656124 8.47365933,13.1406485 C8.49590973,13.1224141 8.51761743,13.1045052 8.5400849,13.0861622 C8.968812,12.7376451 9.46667814,12.397811 10.0034011,12.053961 C12.2255099,13.7586668 15.1471495,15.0400724 16.0589815,15.6079459 C17.0157484,16.204365 17.8187163,17.0550898 18.0915821,18.3887024 C18.3344913,16.885227 18.3887605,15.3029527 17.9805472,14.3331611 C17.4767114,13.1357643 16.725625,12.4696635 15.6468607,11.877803 C14.8404196,11.4350744 13.8646585,10.8848927 12.8657786,10.2510279 C13.3886086,9.90142533 13.9041665,9.53152609 14.3922641,9.13264708 C14.8001518,9.35026679 15.2004419,9.55518749 15.5871646,9.74784334 C16.9848149,10.4439008 17.7601055,11.2184316 18.0903882,12.3749094 C18.5465755,10.2267152 18.088543,9.16770502 17.6906408,8.52320336 C17.280908,7.85959893 16.7285555,7.38962719 16.3033016,7.09375122 C16.7387581,6.16053714 16.2515288,4.90908815 15.2910715,4.51780683 C15.4797114,5.03499281 15.0632492,5.5507678 14.4622715,6.04928517 C14.0232332,5.81310537 13.568891,5.56932789 13.1174794,5.31914663 C13.4695783,5.03065127 13.8013805,4.72185922 14.0912869,4.38853747 C14.8724385,3.49081547 14.3991021,2.39609609 13.4434205,2.09273096 C13.6514888,2.72344822 12.7793819,3.25680645 12.331552,3.53173449 C11.9898728,3.74143088 11.6009793,3.94439789 11.1900526,4.15854437 C10.8751823,3.94483205 10.582454,3.72818919 10.3223957,3.5089414 C10.285167,3.47757377 10.2503262,3.44598907 10.2145085,3.4145129 C10.2324173,3.40517859 10.2496749,3.3956272 10.2679094,3.38629289 C11.1796329,2.91740654 12.0116891,2.31121897 12.5156333,1.77764367 C13.1310467,1.12608701 12.6355684,0.120586282 12.0465299,0 C12.1360742,0.519790911 11.5798143,0.815775421 11.1845171,1.01570335 C10.603619,1.30951709 9.85817653,1.65097923 9.22897881,2.13256459 C9.16982532,2.17782515 9.1114316,2.22395401 9.05531719,2.27138534 C8.72405767,2.55206592 8.46541041,2.97297825 8.37608322,3.46009907 C8.29077195,3.92507804 8.36902821,4.4689645 8.68368134,4.9472937 C8.71863074,4.99537626 8.7554253,5.04324174 8.79363085,5.09067307 C8.87818235,5.19552127 8.97000593,5.30036947 9.0680162,5.40413228 C8.75705338,5.62804722 8.45477363,5.87366986 8.17192228,6.15120282 C8.17137959,6.15152844 8.1708369,6.15196259 8.17040274,6.15250529 C7.65842661,6.65503857 7.2995983,7.35446072 7.2849456,8.0072113 C7.27387467,8.5058372 7.34963455,8.97656871 7.80072059,9.74903726 C7.89721132,9.91260479 8.00705229,10.073893 8.12633611,10.2333361 C7.65148014,10.6098562 7.22492381,10.997013 6.87977135,11.3946981 C6.87163097,11.404358 6.86359912,11.414018 6.85524165,11.4236779 C5.73490718,12.9664442 5.80643406,14.2714027 6.54406175,15.4063899 C7.78248612,17.3117834 10.8890753,18.7517638 13.3843756,20.0027786 C14.6098838,20.6175407 15.7130692,21.2844013 16.6038448,22.3341857 C17.2011322,23.0374067 17.7286293,23.8855266 18.0915821,25 C18.3664016,23.4763364 18.3496867,21.4754291 17.968608,20.3936258 C17.608043,19.3695649 16.87378,18.2724577 15.3536982,17.3052711" id="Fill-2"></path>
        </g>
    </g>
</svg>