<svg xmlns="http://www.w3.org/2000/svg" width="295" height="94" viewBox="0 0 295 94">
  <g fill="none">
    <g transform="translate(0 11)">
      <polygon fill="#0087C0" points="64.571 72 64.571 57.6 .571 57.6 .571 71.967"/>
      <polygon fill="#00B4FF" points=".4 32 14.8 17.6 14.8 57.6 .4 72"/>
      <polygon fill="#0096D5" points="50.1 32 64.5 17.6 64.5 57.6 50 72" transform="matrix(-1 0 0 1 114.5 0)"/>
      <polygon fill="#0096D5" points="43.1 .5 57.5 .6 57.1 18 42.6 32.4" transform="matrix(-1 0 0 1 100.1 0)"/>
      <polygon fill="#00B4FF" points="64.523 21.2 64.523 0 32.4 32.123 32.523 52.4" transform="matrix(-1 0 0 1 96.923 0)"/>
      <polygon fill="#00B4FF" points="32.8 21.2 32.4 0 .5 32 .5 52.5"/>
    </g>
    <g transform="translate(88)">
      <path fill="#58595B" d="M0,20.2167969 L0,4.76953125 L1.45019531,4.76953125 L7.48730469,11.4619141 L13.6210938,4.76953125 L15.0283203,4.76953125 L15.0283203,20.2167969 L11,20.2167969 L11,13.3525391 L7.72363281,16.7900391 L7.28320312,16.7900391 L4.02832031,13.3525391 L4.02832031,20.2167969 L0,20.2167969 Z M17.9931641,12.5361328 C17.9931641,11.2542254 18.2187477,10.0940807 18.6699219,9.05566406 C19.121096,8.01724741 19.7172815,7.17936517 20.4584961,6.54199219 C21.1997107,5.90461921 22.0447544,5.41227387 22.9936523,5.06494141 C23.9425503,4.71760894 24.9093375,4.54394531 25.894043,4.54394531 C26.8787484,4.54394531 27.8455356,4.71760894 28.7944336,5.06494141 C29.7433316,5.41227387 30.5883752,5.90461921 31.3295898,6.54199219 C32.0708045,7.17936517 32.6669899,8.01724741 33.1181641,9.05566406 C33.5693382,10.0940807 33.7949219,11.2542254 33.7949219,12.5361328 C33.7949219,13.8252018 33.5693382,14.9889271 33.1181641,16.0273438 C32.6669899,17.0657604 32.0708045,17.905433 31.3295898,18.5463867 C30.5883752,19.1873404 29.7433316,19.6814761 28.7944336,20.0288086 C27.8455356,20.3761411 26.8787484,20.5498047 25.894043,20.5498047 C24.9093375,20.5498047 23.9425503,20.3761411 22.9936523,20.0288086 C22.0447544,19.6814761 21.1997107,19.1873404 20.4584961,18.5463867 C19.7172815,17.905433 19.121096,17.0657604 18.6699219,16.0273438 C18.2187477,14.9889271 17.9931641,13.8252018 17.9931641,12.5361328 Z M22.0429688,12.5361328 C22.0429688,13.2093133 22.1539702,13.8180311 22.3759766,14.3623047 C22.5979829,14.9065782 22.8898094,15.3470035 23.2514648,15.6835938 C23.6131203,16.020184 24.0249,16.2779939 24.4868164,16.4570312 C24.9487328,16.6360686 25.4213843,16.7255859 25.9047852,16.7255859 C26.388186,16.7255859 26.8608375,16.6360686 27.3227539,16.4570312 C27.7846703,16.2779939 28.19645,16.020184 28.5581055,15.6835938 C28.9197609,15.3470035 29.2115874,14.9065782 29.4335938,14.3623047 C29.6556001,13.8180311 29.7666016,13.2093133 29.7666016,12.5361328 C29.7666016,11.8701139 29.6556001,11.266767 29.4335938,10.7260742 C29.2115874,10.1853814 28.9197609,9.74853682 28.5581055,9.41552734 C28.19645,9.08251787 27.7846703,8.82649829 27.3227539,8.64746094 C26.8608375,8.46842358 26.388186,8.37890625 25.9047852,8.37890625 C25.4213843,8.37890625 24.9487328,8.46842358 24.4868164,8.64746094 C24.0249,8.82649829 23.6131203,9.08251787 23.2514648,9.41552734 C22.8898094,9.74853682 22.5979829,10.1853814 22.3759766,10.7260742 C22.1539702,11.266767 22.0429688,11.8701139 22.0429688,12.5361328 Z M36.8886719,4.8125 L40.90625,4.8125 L40.90625,12.3642578 L48.6943359,4.74804688 L50.1230469,4.74804688 L50.1230469,20.2167969 L46.0625,20.2167969 L46.0625,12.6435547 L38.2958984,20.2382812 L36.8886719,20.2382812 L36.8886719,4.8125 Z M40.2509766,0.21484375 C41.2607472,0.100259844 42.0162735,0.0286459766 42.5175781,0 C42.5820316,0.809248838 43.0869093,1.21386719 44.0322266,1.21386719 C44.5120467,1.21386719 44.8880195,1.12255951 45.1601562,0.939941406 C45.432293,0.757323306 45.6005856,0.444012637 45.6650391,0 C46.1663437,0.0286459766 46.92187,0.100259844 47.9316406,0.21484375 C47.8886717,1.44662074 47.5395541,2.38297206 46.8842773,3.02392578 C46.2290006,3.66487951 45.2926493,3.98535156 44.0751953,3.98535156 C42.8792258,3.98535156 41.9500359,3.66308916 41.2875977,3.01855469 C40.6251594,2.37402021 40.2796225,1.43945925 40.2509766,0.21484375 Z"/>
      <path fill="#0096D5" d="M0.359375,31.5742188 L0.359375,30.2070312 L10.3691406,30.2070312 L16.9609375,43.1220703 L17.2050781,43.1220703 L23.2109375,30.2070312 L32.9277344,30.2070312 L32.9277344,31.5742188 L16.3261719,65.2167969 L6.65820312,65.2167969 L6.65820312,64.2646484 L12.1757812,52.9609375 L0.359375,31.5742188 Z M37.7861328,65.2167969 L37.7861328,30.2070312 L46.9414062,30.2070312 L46.9414062,42.9267578 L57.7324219,42.9267578 L57.7324219,30.2070312 L66.8876953,30.2070312 L66.8876953,65.2167969 L57.7324219,65.2167969 L57.7324219,51.1787109 L46.9414062,51.1787109 L46.9414062,65.2167969 L37.7861328,65.2167969 Z M75.8720703,65.265625 L75.8720703,30.2070312 L85.0273437,30.2070312 L85.0273437,47.3701172 L102.727539,30.0605469 L105.974609,30.0605469 L105.974609,65.2167969 L96.7216797,65.2167969 L96.7216797,48.0048828 L79.0703125,65.265625 L75.8720703,65.265625 Z M114.910156,65.2167969 L114.910156,30.2070312 L129.875977,30.2070312 C132.903335,30.2070312 135.474924,31.2446185 137.59082,33.3198242 C139.706716,35.3950299 140.764648,37.9462739 140.764648,40.9736328 C140.764648,42.0478569 140.512372,43.1546167 140.007812,44.2939453 C139.503253,45.4332739 138.835942,46.3447231 138.005859,47.0283203 C140.805353,48.444343 142.205078,50.8206213 142.205078,54.1572266 C142.172526,57.3636228 141.20818,60.0084531 139.312012,62.0917969 C137.415843,64.1751406 134.750668,65.2167969 131.316406,65.2167969 L114.910156,65.2167969 Z M123.577148,57.2578125 L130.706055,57.2578125 C131.389652,57.2578125 131.963377,57.054364 132.427246,56.6474609 C132.891116,56.2405579 133.171875,55.7482125 133.269531,55.1704102 C133.367188,54.5926078 133.363119,54.0107451 133.257324,53.4248047 C133.151529,52.8388643 132.862633,52.34245 132.390625,51.9355469 C131.918617,51.5286438 131.340824,51.3251953 130.657227,51.3251953 L123.577148,51.3251953 L123.577148,57.2578125 Z M123.577148,43.8789062 L129.216797,43.8789062 C129.884118,43.8789062 130.449705,43.6835957 130.913574,43.2929688 C131.377444,42.9023418 131.662272,42.4303413 131.768066,41.8769531 C131.873861,41.3235649 131.869792,40.7701851 131.755859,40.2167969 C131.641927,39.6634087 131.35303,39.1914082 130.88916,38.8007812 C130.425291,38.4101543 129.851566,38.2148438 129.167969,38.2148438 L123.577148,38.2148438 L123.577148,43.8789062 Z M149.1875,65.2167969 L149.1875,30.2070312 L171.038086,30.2070312 L171.038086,38.2148438 L158.098633,38.2148438 L158.098633,43.1708984 L169.988281,43.1708984 L169.988281,51.1054688 L158.098633,51.1054688 L158.098633,57.2578125 L171.501953,57.2578125 L171.501953,65.2167969 L149.1875,65.2167969 Z M179.167969,65.2167969 L179.167969,30.2070312 L194.573242,30.2070312 C196.379892,30.2070312 198.035963,30.508135 199.541504,31.1103516 C201.047045,31.7125681 202.288081,32.5141552 203.264648,33.5151367 C204.241216,34.5161183 205.067217,35.6676367 205.742676,36.9697266 C206.418135,38.2718164 206.829101,39.6430592 206.975586,41.0834961 C207.122071,42.523933 207.122071,43.9643483 206.975586,45.4047852 C206.829101,46.845222 206.418135,48.2164648 205.742676,49.5185547 C205.067217,50.8206445 204.241216,51.972163 203.264648,52.9731445 C202.288081,53.9741261 201.047045,54.7716442 199.541504,55.3657227 C198.035963,55.9598011 196.379892,56.2568359 194.573242,56.2568359 L188.12793,56.2568359 L188.12793,65.2167969 L179.167969,65.2167969 Z M188.12793,48.2246094 L194.524414,48.2246094 C195.191735,48.2246094 195.798012,48.0415057 196.343262,47.675293 C196.888512,47.3090802 197.303547,46.8330107 197.588379,46.2470703 C197.873211,45.6611299 198.084797,45.0141637 198.223145,44.3061523 C198.361492,43.598141 198.36963,42.8860713 198.247559,42.1699219 C198.125488,41.4537725 197.926108,40.8027373 197.649414,40.2167969 C197.37272,39.6308564 196.961754,39.150718 196.416504,38.7763672 C195.871254,38.4020164 195.240563,38.2148438 194.524414,38.2148438 C193.905921,38.1985676 193.234541,38.1904297 192.510254,38.1904297 C191.785966,38.1904297 190.988448,38.1944987 190.117676,38.2026367 C189.246903,38.2107748 188.583661,38.2148438 188.12793,38.2148438 L188.12793,48.2246094 Z"/>
    </g>
    <g transform="translate(89 73)">
      <rect width="107" height="21" fill="#E11E3C" rx="4"/>
      <path fill="#FFF" d="M1.04101562,10.1269531 C1.6969401,10.1354167 2.21744792,9.9619141 2.60253906,9.6064453 C2.98763021,9.2509766 3.28068034,8.6363118 3.48168945,7.7624512 C3.68269857,6.8885905 3.91438802,5.37044271 4.17675781,3.20800781 L4.17675781,3.20800781 L4.27832031,2.35742188 L6.55078125,2.35742188 L6.55078125,10 L8.51220703,10 L8.51220703,0.71972656 L2.65332031,0.71972656 C2.51790365,1.84960938 2.35392253,3.04825846 2.16137695,4.31567383 C1.96883138,5.58308919 1.81437174,6.4950358 1.69799805,7.0515137 C1.58162435,7.6079915 1.45784505,7.9888509 1.32666016,8.1940918 C1.19547526,8.3993327 1.01774089,8.5019531 0.793457031,8.5019531 C0.577636719,8.5019531 0.347005208,8.4596354 0.1015625,8.375 L0.1015625,8.375 L0.1015625,9.9873047 C0.372395833,10.0804036 0.685546875,10.1269531 1.04101562,10.1269531 Z M11.597168,10.1269531 C12.2150065,10.1269531 12.7397461,10.0391439 13.1713867,9.8635254 C13.6030273,9.6879069 13.9764811,9.4202474 14.291748,9.0605469 C14.607015,8.7008464 14.9444987,8.1083984 15.3041992,7.2832031 L15.3041992,7.2832031 L18.1733398,0.71972656 L16.1484375,0.71972656 L14.2314453,5.57568359 L14.1171875,5.89306641 L14.0537109,5.89306641 L11.7685547,0.71972656 L9.68652344,0.71972656 L12.8984375,7.3847656 C12.7545573,7.7867839 12.574707,8.0692546 12.3588867,8.2321777 C12.1430664,8.3951009 11.8595378,8.4765625 11.5083008,8.4765625 C10.9539388,8.4765625 10.4905599,8.4003906 10.1181641,8.2480469 L10.1181641,8.2480469 L10.1181641,9.9365234 C10.5751953,10.0634766 11.0681966,10.1269531 11.597168,10.1269531 Z M26.4697266,10 L26.4697266,0.71972656 L24.5019531,0.71972656 L24.5019531,4.87744141 C23.9983724,5.05094401 23.5741374,5.17260742 23.229248,5.24243164 C22.8843587,5.31225586 22.5384115,5.34716797 22.1914062,5.34716797 C21.6962891,5.34716797 21.3450521,5.2339681 21.1376953,5.00756836 C20.9303385,4.78116862 20.8266602,4.4436849 20.8266602,3.99511719 L20.8266602,3.99511719 L20.8266602,0.71972656 L18.8652344,0.71972656 L18.8652344,4.55371094 C18.8652344,5.32389323 19.1053874,5.92163086 19.5856934,6.3469238 C20.0659993,6.7722168 20.7483724,6.9848633 21.6328125,6.9848633 C22.0263672,6.9848633 22.4400228,6.9446615 22.8737793,6.8642578 C23.3075358,6.7838542 23.8502604,6.6336263 24.5019531,6.4135742 L24.5019531,6.4135742 L24.5019531,10 L26.4697266,10 Z M40.4790039,10 L40.4790039,0.71972656 L38.5175781,0.71972656 L38.5175781,8.3623047 L35.6357422,8.3623047 L35.6357422,0.71972656 L33.6552734,0.71972656 L33.6552734,8.3623047 L30.7734375,8.3623047 L30.7734375,0.71972656 L28.8056641,0.71972656 L28.8056641,10 L40.4790039,10 Z M48.1660156,10 L48.1660156,8.375 L44.7890625,8.375 L44.7890625,5.98193359 L47.9311523,5.98193359 L47.9311523,4.36962891 L44.7890625,4.36962891 L44.7890625,2.33203125 L48.1660156,2.33203125 L48.1660156,0.71972656 L42.8212891,0.71972656 L42.8212891,10 L48.1660156,10 Z M54.2724609,12.7041016 L54.2724609,10 L60.0869141,10 L60.0869141,12.7041016 L61.9848633,12.7041016 L61.9848633,8.3623047 L60.7470703,8.3623047 L60.7470703,0.71972656 L55.3388672,0.71972656 C55.1653646,2.13736979 54.9008789,3.45874023 54.5454102,4.68383789 C54.1899414,5.90893555 53.7054036,7.1350911 53.0917969,8.3623047 L53.0917969,8.3623047 L52.3745117,8.3623047 L52.3745117,12.7041016 L54.2724609,12.7041016 Z M58.7856445,8.3623047 L55.1611328,8.3623047 C55.5546875,7.4947917 55.9090983,6.5193685 56.2243652,5.43603516 C56.5396322,4.35270182 56.764974,3.3264974 56.9003906,2.35742188 L56.9003906,2.35742188 L58.7856445,2.35742188 L58.7856445,8.3623047 Z M67.418457,10.1269531 C68.840332,10.1269531 69.9321289,9.7143555 70.6938477,8.8891602 C71.4555664,8.0639648 71.8364258,6.8833008 71.8364258,5.34716797 C71.8364258,3.80680339 71.4587402,2.62613932 70.7033691,1.80517578 C69.947998,0.98421224 68.8572591,0.57373047 67.4311523,0.57373047 C66.0050456,0.57373047 64.9100749,0.98103841 64.1462402,1.7956543 C63.3824056,2.61027018 63.0004883,3.7898763 63.0004883,5.33447266 C63.0004883,6.879069 63.3813477,8.0639648 64.1430664,8.8891602 C64.9047852,9.7143555 65.996582,10.1269531 67.418457,10.1269531 Z M67.418457,8.4765625 C66.6355794,8.4765625 66.0473633,8.2141927 65.6538086,7.6894531 C65.2602539,7.1647135 65.0634766,6.3839518 65.0634766,5.34716797 C65.0634766,4.31038411 65.2623698,3.52856445 65.6601562,3.00170898 C66.0579427,2.47485352 66.6482747,2.21142578 67.4311523,2.21142578 C68.9926758,2.21142578 69.7734375,3.25667318 69.7734375,5.34716797 C69.7734375,7.433431 68.988444,8.4765625 67.418457,8.4765625 Z M75.5180664,10 L75.5180664,5.68359375 C75.5180664,5.18847656 75.4778646,4.20035807 75.3974609,2.71923828 L75.3974609,2.71923828 L75.4545898,2.71923828 L77.6889648,10 L79.4916992,10 L81.8847656,2.73193359 L81.9418945,2.73193359 C81.8911133,3.89990234 81.8625488,4.61930339 81.8562012,4.89013672 C81.8498535,5.16097005 81.8466797,5.4000651 81.8466797,5.60742188 L81.8466797,5.60742188 L81.8466797,10 L83.6811523,10 L83.6811523,0.71972656 L81.0024414,0.71972656 L78.6728516,7.8164062 L78.6347656,7.8164062 L76.4384766,0.71972656 L73.7597656,0.71972656 L73.7597656,10 L75.5180664,10 Z M86.9692383,10 L87.6420898,7.7910156 L91.0253906,7.7910156 L91.6982422,10 L93.8183594,10 L90.5302734,0.68164062 L88.1245117,0.68164062 L84.8491211,10 L86.9692383,10 Z M90.5556641,6.140625 L88.137207,6.140625 C88.7973633,4.00358073 89.1972656,2.66422526 89.3369141,2.12255859 C89.3707682,2.27490234 89.4268392,2.48225911 89.505127,2.74462891 C89.5834147,3.0069987 89.9335938,4.1389974 90.5556641,6.140625 L90.5556641,6.140625 Z M96.4589844,6.9213867 L96.7827148,0.71972656 L94.5864258,0.71972656 L94.9101562,6.9213867 L96.4589844,6.9213867 Z M95.6782227,10.1713867 C96.0252279,10.1713867 96.2960612,10.0751139 96.4907227,9.8825684 C96.6853841,9.6900228 96.7827148,9.4265951 96.7827148,9.0922852 C96.7827148,8.7452799 96.6864421,8.4786784 96.4938965,8.2924805 C96.3013509,8.1062826 96.0294596,8.0131836 95.6782227,8.0131836 C95.3142904,8.0131836 95.0371094,8.1041667 94.8466797,8.2861328 C94.65625,8.468099 94.5610352,8.7368164 94.5610352,9.0922852 C94.5610352,9.4350586 94.6583659,9.7006022 94.8530273,9.888916 C95.0476888,10.0772298 95.3227539,10.1713867 95.6782227,10.1713867 Z" transform="translate(4 5)"/>
    </g>
  </g>
</svg>
