<svg xmlns="http://www.w3.org/2000/svg" width="129" height="109" viewBox="0 0 129 109">
  <g fill="none">
    <g transform="translate(32)">
      <polygon fill="#0087C0" points="64.571 72 64.571 57.6 .571 57.6 .571 71.967"/>
      <polygon fill="#00B4FF" points=".4 32 14.8 17.6 14.8 57.6 .4 72"/>
      <polygon fill="#0096D5" points="50.1 32 64.5 17.6 64.5 57.6 50 72" transform="matrix(-1 0 0 1 114.5 0)"/>
      <polygon fill="#0096D5" points="43.1 .5 57.5 .6 57.1 18 42.6 32.4" transform="matrix(-1 0 0 1 100.1 0)"/>
      <polygon fill="#00B4FF" points="64.523 21.2 64.523 0 32.4 32.123 32.523 52.4" transform="matrix(-1 0 0 1 96.923 0)"/>
      <polygon fill="#00B4FF" points="32.8 21.2 32.4 0 .5 32 .5 52.5"/>
    </g>
    <g transform="translate(0 83)">
      <rect width="128.4" height="25.2" fill="#E11E3C" rx="4.8"/>
      <path fill="#FFF" d="M2.04921875,12.3523438 C2.83632812,12.3625 3.4609375,12.1542969 3.92304688,11.7277344 C4.38515625,11.3011719 4.73681641,10.5635742 4.97802734,9.51494141 C5.21923828,8.46630859 5.49726562,6.64453125 5.81210937,4.04960938 L5.81210937,4.04960938 L5.93398437,3.02890625 L8.6609375,3.02890625 L8.6609375,12.2 L11.0146484,12.2 L11.0146484,1.06367188 L3.98398438,1.06367188 C3.82148438,2.41953125 3.62470703,3.85791016 3.39365234,5.37880859 C3.16259766,6.89970703 2.97724609,7.99404297 2.83759766,8.66181641 C2.69794922,9.32958984 2.54941406,9.78662109 2.39199219,10.0329102 C2.23457031,10.2791992 2.02128906,10.4023438 1.75214844,10.4023438 C1.49316406,10.4023438 1.21640625,10.3515625 0.921875,10.25 L0.921875,10.25 L0.921875,12.1847656 C1.246875,12.2964844 1.62265625,12.3523438 2.04921875,12.3523438 Z M14.7166016,12.3523438 C15.4580078,12.3523438 16.0876953,12.2469727 16.6056641,12.0362305 C17.1236328,11.8254883 17.5717773,11.5042969 17.9500977,11.0726563 C18.328418,10.6410156 18.7333984,9.93007813 19.1650391,8.93984375 L19.1650391,8.93984375 L22.6080078,1.06367188 L20.178125,1.06367188 L17.8777344,6.89082031 L17.740625,7.27167969 L17.6644531,7.27167969 L14.9222656,1.06367188 L12.4238281,1.06367188 L16.278125,9.06171875 C16.1054687,9.54414063 15.8896484,9.88310547 15.6306641,10.0786133 C15.3716797,10.2741211 15.0314453,10.371875 14.6099609,10.371875 C13.9447266,10.371875 13.3886719,10.2804688 12.9417969,10.0976563 L12.9417969,10.0976563 L12.9417969,12.1238281 C13.4902344,12.2761719 14.0818359,12.3523438 14.7166016,12.3523438 Z M32.5636719,12.2 L32.5636719,1.06367188 L30.2023438,1.06367188 L30.2023438,6.05292969 C29.5980469,6.26113281 29.0889648,6.40712891 28.6750977,6.49091797 C28.2612305,6.57470703 27.8460938,6.61660156 27.4296875,6.61660156 C26.8355469,6.61660156 26.4140625,6.48076172 26.1652344,6.20908203 C25.9164063,5.93740234 25.7919922,5.53242188 25.7919922,4.99414063 L25.7919922,4.99414063 L25.7919922,1.06367188 L23.4382813,1.06367188 L23.4382813,5.66445313 C23.4382813,6.58867188 23.7264648,7.30595703 24.302832,7.81630859 C24.8791992,8.32666016 25.6980469,8.58183594 26.759375,8.58183594 C27.2316406,8.58183594 27.7280273,8.53359375 28.2485352,8.43710938 C28.769043,8.340625 29.4203125,8.16035156 30.2023438,7.89628906 L30.2023438,7.89628906 L30.2023438,12.2 L32.5636719,12.2 Z M49.3748047,12.2 L49.3748047,1.06367188 L47.0210937,1.06367188 L47.0210937,10.2347656 L43.5628906,10.2347656 L43.5628906,1.06367188 L41.1863281,1.06367188 L41.1863281,10.2347656 L37.728125,10.2347656 L37.728125,1.06367188 L35.3667969,1.06367188 L35.3667969,12.2 L49.3748047,12.2 Z M58.5992187,12.2 L58.5992187,10.25 L54.546875,10.25 L54.546875,7.37832031 L58.3173828,7.37832031 L58.3173828,5.44355469 L54.546875,5.44355469 L54.546875,2.9984375 L58.5992187,2.9984375 L58.5992187,1.06367188 L52.1855469,1.06367188 L52.1855469,12.2 L58.5992187,12.2 Z M65.9269531,15.4449219 L65.9269531,12.2 L72.9042969,12.2 L72.9042969,15.4449219 L75.1818359,15.4449219 L75.1818359,10.2347656 L73.6964844,10.2347656 L73.6964844,1.06367188 L67.2066406,1.06367188 C66.9984375,2.76484375 66.6810547,4.35048828 66.2544922,5.82060547 C65.8279297,7.29072266 65.2464844,8.76210938 64.5101562,10.2347656 L64.5101562,10.2347656 L63.6494141,10.2347656 L63.6494141,15.4449219 L65.9269531,15.4449219 Z M71.3427734,10.2347656 L66.9933594,10.2347656 C67.465625,9.19375 67.890918,8.02324219 68.2692383,6.72324219 C68.6475586,5.42324219 68.9179687,4.19179688 69.0804687,3.02890625 L69.0804687,3.02890625 L71.3427734,3.02890625 L71.3427734,10.2347656 Z M81.7021484,12.3523438 C83.4083984,12.3523438 84.7185547,11.8572266 85.6326172,10.8669922 C86.5466797,9.87675781 87.0037109,8.45996094 87.0037109,6.61660156 C87.0037109,4.76816406 86.5504883,3.35136719 85.644043,2.36621094 C84.7375977,1.38105469 83.4287109,0.888476563 81.7173828,0.888476563 C80.0060547,0.888476563 78.6920898,1.37724609 77.7754883,2.35478516 C76.8588867,3.33232422 76.4005859,4.74785156 76.4005859,6.60136719 C76.4005859,8.45488281 76.8576172,9.87675781 77.7716797,10.8669922 C78.6857422,11.8572266 79.9958984,12.3523438 81.7021484,12.3523438 Z M81.7021484,10.371875 C80.7626953,10.371875 80.0568359,10.0570313 79.5845703,9.42734375 C79.1123047,8.79765625 78.8761719,7.86074219 78.8761719,6.61660156 C78.8761719,5.37246094 79.1148437,4.43427734 79.5921875,3.80205078 C80.0695312,3.16982422 80.7779297,2.85371094 81.7173828,2.85371094 C83.5912109,2.85371094 84.528125,4.10800781 84.528125,6.61660156 C84.528125,9.12011719 83.5861328,10.371875 81.7021484,10.371875 Z M91.4216797,12.2 L91.4211143,6.9019783 C91.415461,6.27564316 91.3674072,5.1293457 91.2769531,3.46308594 L91.2769531,3.46308594 L91.3455078,3.46308594 L94.0267578,12.2 L96.1900391,12.2 L99.0617187,3.47832031 L99.1302734,3.47832031 C99.0693359,4.87988281 99.0350586,5.74316406 99.0274414,6.06816406 C99.0198242,6.39316406 99.0160156,6.68007813 99.0160156,6.92890625 L99.0160156,12.2 L101.217383,12.2 L101.217383,1.06367188 L98.0029297,1.06367188 L95.2074219,9.5796875 L95.1617187,9.5796875 L92.5261719,1.06367188 L89.3117187,1.06367188 L89.3117187,12.2 L91.4216797,12.2 Z M105.163086,12.2 L105.970508,9.54921875 L110.030469,9.54921875 L110.837891,12.2 L113.382031,12.2 L109.436328,1.01796875 L106.549414,1.01796875 L102.618945,12.2 L105.163086,12.2 Z M109.466797,7.56875 L106.564648,7.56875 C107.356836,5.00429688 107.836719,3.39707031 108.004297,2.74707031 C108.044922,2.92988281 108.112207,3.17871094 108.206152,3.49355469 C108.300098,3.80839844 108.720312,5.16679688 109.466797,7.56875 L109.466797,7.56875 Z M116.550781,8.50566406 L116.939258,1.06367188 L114.303711,1.06367188 L114.692188,8.50566406 L116.550781,8.50566406 Z M115.613867,12.4056641 C116.030273,12.4056641 116.355273,12.2901367 116.588867,12.059082 C116.822461,11.8280273 116.939258,11.5119141 116.939258,11.1107422 C116.939258,10.6943359 116.82373,10.3744141 116.592676,10.1509766 C116.361621,9.92753906 116.035352,9.81582031 115.613867,9.81582031 C115.177148,9.81582031 114.844531,9.925 114.616016,10.1433594 C114.3875,10.3617188 114.273242,10.6841797 114.273242,11.1107422 C114.273242,11.5220703 114.390039,11.8407227 114.623633,12.0666992 C114.857227,12.2926758 115.187305,12.4056641 115.613867,12.4056641 Z" transform="translate(4 6)"/>
    </g>
  </g>
</svg>
